<svg xmlns="http://www.w3.org/2000/svg" viewBox="0 0 500 500"><g id="freepik--background-complete--inject-5"><path d="M79.91,316.86l-13.75.27-7,.12c-2.33,0-4.67,0-7,.05h-.44v-.44l-.06-11.72v-.51h.5l13.87.06c4.62,0,9.24.11,13.86.16h.28v.27c0,2-.09,4-.13,5.91Zm0,0-.14-5.92c0-1.95-.11-3.88-.13-5.8l.27.27c-4.62,0-9.24.16-13.86.16l-13.87.07.5-.5,0,11.72-.45-.45c2.29,0,4.57,0,6.86,0l6.89.12Z" style="fill:#ebebeb"></path><path d="M64.44,331.63l-13.75.28-7,.11c-2.33.05-4.67,0-7,.06h-.44v-.45l0-11.72v-.5h.5l13.87.07c4.62,0,9.24.11,13.86.16h.28v.27c0,2-.09,4-.13,5.92Zm0,0-.14-5.92c0-1.95-.11-3.88-.13-5.8l.27.28c-4.62.05-9.24.16-13.86.16l-13.87.06.5-.5-.05,11.72-.45-.44c2.29,0,4.57,0,6.86.05l6.89.11Z" style="fill:#ebebeb"></path><path d="M259.17,170.78l-13.75.28-7,.11c-2.33.05-4.67,0-7,.06H231v-.45l-.06-11.72v-.5h.5l13.87.06c4.62,0,9.24.12,13.86.17h.28v.27c0,2-.09,4-.13,5.92Zm0,0-.14-5.92c0-2-.11-3.88-.13-5.8l.27.27c-4.62.06-9.24.16-13.86.17l-13.87.06.5-.5-.05,11.72-.45-.45c2.29,0,4.57,0,6.86.06l6.89.11Z" style="fill:#ebebeb"></path><path d="M243.45,185.56l-13.75.28-7,.11c-2.33,0-4.67,0-7,.05h-.44v-.45l-.05-11.72v-.5h.5l13.87.06c4.62,0,9.25.11,13.87.16h.27v.27c0,2-.09,4-.13,5.92Zm0,0-.14-5.92c-.05-1.95-.12-3.88-.14-5.8l.28.27c-4.62,0-9.25.16-13.87.16l-13.87.07.5-.5-.05,11.72-.45-.45c2.29,0,4.57,0,6.86.06l6.9.11Z" style="fill:#ebebeb"></path><path d="M463.29,331.63l-13.75.28-7,.11c-2.33.05-4.67,0-7,.06h-.45v-.45l-.05-11.72v-.5h.51l13.86.07c4.63,0,9.25.11,13.87.16h.27v.27c0,2-.08,4-.13,5.92Zm0,0-.14-5.92c0-1.95-.11-3.88-.13-5.8l.27.28c-4.62.05-9.24.16-13.87.16l-13.86.06.5-.5L436,331.63l-.44-.44c2.28,0,4.56,0,6.86.05l6.89.11Z" style="fill:#ebebeb"></path><path d="M447.82,54.38l-13.75.28-7,.11c-2.33,0-4.67,0-7,0h-.45v-.45l-.05-11.72v-.5h.51l13.86.06c4.62,0,9.25.12,13.87.17h.27v.27c0,2-.08,4-.13,5.92Zm0,0-.14-5.92c-.05-2-.11-3.88-.13-5.8l.27.27c-4.62,0-9.25.16-13.87.17l-13.86.06.5-.5-.06,11.72-.44-.45c2.28,0,4.56,0,6.86.06l6.89.11Z" style="fill:#ebebeb"></path><path d="M463.29,69.16l-13.75.27-7,.12c-2.33,0-4.67,0-7,0h-.45v-.44l-.05-11.72v-.5h.51l13.86.06c4.63,0,9.25.11,13.87.16h.27v.27c0,2-.08,4-.13,5.92Zm0,0-.14-5.92c0-2-.11-3.88-.13-5.8l.27.27c-4.62,0-9.24.16-13.87.16l-13.86.07.5-.5L436,69.16l-.44-.45c2.28,0,4.56,0,6.86.06l6.89.11Z" style="fill:#ebebeb"></path><path d="M64.44,54.38l-13.75.28-7,.11c-2.33,0-4.67,0-7,0h-.44v-.45l0-11.72v-.5h.5l13.87.06c4.62,0,9.24.12,13.86.17h.28v.27c0,2-.09,4-.13,5.92Zm0,0-.14-5.92c0-2-.11-3.88-.13-5.8l.27.27c-4.62,0-9.24.16-13.86.17l-13.87.06.5-.5-.05,11.72-.45-.45c2.29,0,4.57,0,6.86.06l6.89.11Z" style="fill:#ebebeb"></path><path d="M227.72,170.78l-13.75.28-7,.11c-2.33.05-4.67,0-7,.06h-.45v-.45l0-11.72v-.5h.5l13.86.06c4.63,0,9.25.12,13.87.17H228v.27c0,2-.08,4-.13,5.92Zm0,0-.14-5.92c-.05-2-.11-3.88-.13-5.8l.27.27c-4.62.06-9.24.16-13.87.17l-13.86.06.5-.5-.06,11.72-.44-.45c2.28,0,4.56,0,6.86.06l6.89.11Z" style="fill:#ebebeb"></path><rect x="67.16" y="163.28" width="47.74" height="47.74" transform="translate(278.17 96.12) rotate(90)" style="fill:#dbdbdb"></rect><rect x="74.56" y="170.68" width="32.93" height="32.93" transform="translate(278.17 96.12) rotate(90)" style="fill:#fff"></rect><polygon points="107.49 170.68 74.56 170.68 74.56 203.61 107.49 170.68" style="fill:#ebebeb"></polygon><rect x="62.49" y="163.28" width="4.67" height="47.74" transform="translate(129.64 374.29) rotate(180)" style="fill:#c7c7c7"></rect><rect x="126.25" y="163.28" width="47.74" height="47.74" transform="translate(337.26 37.03) rotate(90)" style="fill:#dbdbdb"></rect><rect x="133.65" y="170.68" width="32.93" height="32.93" transform="translate(337.26 37.03) rotate(90)" style="fill:#fff"></rect><polygon points="156.91 170.68 133.65 170.68 133.65 193.94 156.91 170.68" style="fill:#ebebeb"></polygon><rect x="121.58" y="163.28" width="4.67" height="47.74" transform="translate(247.83 374.29) rotate(180)" style="fill:#c7c7c7"></rect><rect x="89.38" y="200.22" width="62.39" height="106.83" transform="translate(374.21 133.06) rotate(90)" style="fill:#dbdbdb"></rect><rect x="97.09" y="208.02" width="46.96" height="91.23" transform="translate(374.21 133.06) rotate(90)" style="fill:#fff"></rect><polygon points="134.76 230.16 74.95 230.16 74.95 260.94 134.76 230.16" style="fill:#ebebeb"></polygon><rect x="62.49" y="222.44" width="4.67" height="62.39" transform="translate(129.64 507.27) rotate(180)" style="fill:#c7c7c7"></rect><rect x="67.16" y="45.32" width="106.83" height="106.83" transform="translate(219.3 -21.84) rotate(90)" style="fill:#dbdbdb"></rect><rect x="74.95" y="53.11" width="91.24" height="91.23" style="fill:#fff"></rect><path d="M75,118.8C88.82,105,128.12,65.9,140.74,53.11H75Z" style="fill:#ebebeb"></path><rect x="62.49" y="45.31" width="4.67" height="106.83" transform="translate(129.64 197.46) rotate(180)" style="fill:#c7c7c7"></rect></g><g id="freepik--Shadow--inject-5"><ellipse cx="250" cy="433.77" rx="202.33" ry="21.95" style="fill:#ebebeb"></ellipse></g><g id="freepik--Device--inject-5"><path d="M433.35,45.31H274.6a16.21,16.21,0,0,0-16.06,16.36V388.49a16.22,16.22,0,0,0,16.06,16.36H433.35a16.23,16.23,0,0,0,16.08-16.36V61.67A16.22,16.22,0,0,0,433.35,45.31Zm6,333.08C439.39,387,433,394,425,394H283c-8,0-14.4-7-14.4-15.56V74.06c0-17.52,6.44-18.38,14.4-18.38h28.45c1.65,0,3,1.88,3,4.21v1c0,5.46,3,5.48,6.66,5.48h65.8c3.7,0,6.65,0,6.65-5.48v-1c0-2.33,1.34-4.21,3-4.21H425c7.95,0,14.39,2.33,14.39,18.38Z" style="fill:#263238"></path><path d="M363,59.55H345a1.1,1.1,0,0,1-1.11-1.1h0A1.1,1.1,0,0,1,345,57.34H363a1.1,1.1,0,0,1,1.11,1.11h0A1.1,1.1,0,0,1,363,59.55Z" style="fill:#fff"></path><path d="M439.39,74.06V378.39C439.39,387,433,394,425,394H283c-8,0-14.41-7-14.41-15.56V74.06c0-17.52,6.44-18.38,14.41-18.38h28.44c1.65,0,3,1.88,3,4.21v1c0,5.46,3,5.48,6.66,5.48h65.79c3.7,0,6.66,0,6.66-5.48v-1c0-2.33,1.33-4.21,3-4.21H425C433,55.68,439.39,58,439.39,74.06Z" style="fill:#fff"></path><g style="opacity:0.2"><path d="M436.78,381.1a37.41,37.41,0,0,1-2.31,9A13.74,13.74,0,0,1,425,394H282.85c-8,0-14.42-7-14.42-15.57v-82a55.4,55.4,0,0,1,20.21-13.16c17.05-6.37,35.51-3.78,45.65,5.14,15,13.2,37.68,48.83,50.56,49.54.88.05,1.9.11,3,.21,9.33.75,26.6,3.32,38,12.84C433.59,357.32,438.62,366.86,436.78,381.1Z" style="fill:#8962D0;opacity:0.4"></path><path d="M425,394.45H282.85c-8.23,0-14.92-7.21-14.92-16.07V301.52l.11-.14a105.8,105.8,0,0,1,8.77-9.8,55.38,55.38,0,0,1,11.58-8.81c21.55-12.29,46.78-7.71,57.8,3.59,5.08,5.21,10.85,13.31,16.95,21.89,8.67,12.18,17.64,24.78,25,29.43a11.26,11.26,0,0,0,4.37,1.77c9.43,1.23,22.92,4.16,33.65,11.07,6.46,4.15,11.06,9.26,13.66,15.19l0,.2v12.47a16.62,16.62,0,0,1-5.08,12.09A14.31,14.31,0,0,1,425,394.45ZM268.93,301.86v76.52c0,8.31,6.24,15.07,13.92,15.07H425a13.28,13.28,0,0,0,9.12-3.71,15.63,15.63,0,0,0,4.77-11.36V366c-2.53-5.71-7-10.64-13.24-14.66-10.57-6.81-23.91-9.7-33.24-10.92a12.32,12.32,0,0,1-4.78-1.92c-7.55-4.75-16.57-17.43-25.3-29.69-6.08-8.55-11.83-16.62-16.86-21.78-10.75-11-35.45-15.46-56.58-3.41a54.3,54.3,0,0,0-11.38,8.65A105.45,105.45,0,0,0,268.93,301.86Z" style="fill:#263238"></path><path d="M323.91,85.32c4.34,7,2,15.37-2.56,17.94s-12.46,7.69-13.63,10.85-8.58,11.13-17.91,6.54-8.29-20.67-4.17-30.51C291.08,77.16,312,66,323.91,85.32Z" style="fill:#8962D0;opacity:0.4"></path><path d="M294.42,123.49a13.11,13.11,0,0,1-6.68-1.88c-9.51-5.58-6.84-22-2-31.28,4-7.84,13.48-13.76,22-13.78h0c5.2,0,12.44,2.06,17.55,11.88h0a15.32,15.32,0,0,1,1,11.93,10.65,10.65,0,0,1-5.18,6.38c-6,2.82-12.85,6.75-14,9.3-.9,1.94-4.3,5.45-8.75,6.84A13.16,13.16,0,0,1,294.42,123.49Zm13.29-45.94h0c-8.14,0-17.2,5.71-21.08,13.23-4.81,9.34-6.91,24.94,1.65,30a11.67,11.67,0,0,0,9.78,1.18c4.16-1.3,7.32-4.53,8.14-6.3,1.59-3.42,10.68-8,14.52-9.78a9.66,9.66,0,0,0,4.65-5.8,14.35,14.35,0,0,0-.95-11.15h0C319.49,79.52,312.63,77.55,307.71,77.55Z" style="fill:#263238"></path><path d="M389.1,133.71C370.35,137.2,362,152.14,368,160.16s26.9,7.87,30.75,19.43S417,208.35,432,196.74,429.23,126.25,389.1,133.71Z" style="fill:#dbdbdb"></path><path d="M415.57,205.48a15.42,15.42,0,0,1-6.28-1.36c-8.33-3.64-14.47-14.18-16.24-22.7-1.36-6.55-8.52-10.15-15.44-13.62-5.41-2.72-10.52-5.28-12.76-9.15-1.9-3.28-1.77-7.44.34-11.41,3.08-5.77,11-12.25,24.13-13.12l0,.5,0-.5c27.56-1.82,37.8,23.9,40.28,31.83,5,16,2.9,32.11-4.78,36.73A18,18,0,0,1,415.57,205.48Zm-26.18-70.36c-12.69.84-20.36,7.06-23.31,12.59-2,3.71-2.11,7.42-.36,10.44,2.09,3.61,7.07,6.11,12.34,8.75,7.14,3.59,14.52,7.29,16,14.31,1.72,8.28,7.65,18.49,15.66,22,4.72,2.06,9.64,1.6,14.62-1.39,7.3-4.39,9.21-20,4.33-35.57-2.42-7.75-12.41-32.91-39.25-31.13Z" style="fill:#263238"></path></g><g id="freepik--u5Zjqx--inject-5"><path d="M306.51,62.52l-.27.27-.16.16a3.68,3.68,0,0,0-2.64-1.1,3.72,3.72,0,0,0-2.66,1.1l-.15-.15-.27-.28h0l0,0,.34-.3a4.3,4.3,0,0,1,.81-.52,4,4,0,0,1,1.06-.35,5.15,5.15,0,0,1,.53-.07h.47c.12,0,.24,0,.36,0a3.68,3.68,0,0,1,1,.23,4,4,0,0,1,.66.31,3.54,3.54,0,0,1,.63.44l.29.26Z" style="fill:#c7c7c7"></path><path d="M301.65,63.81l-.43-.43a3.13,3.13,0,0,1,4.43,0l-.44.44a2.46,2.46,0,0,0-1.78-.74A2.5,2.5,0,0,0,301.65,63.81Z" style="fill:#c7c7c7"></path><path d="M304.78,64.24l-.44.44a1.24,1.24,0,0,0-.91-.38,1.25,1.25,0,0,0-.91.38c-.14-.15-.29-.29-.43-.43A1.9,1.9,0,0,1,304.78,64.24Z" style="fill:#c7c7c7"></path><path d="M303.82,65.07a.39.39,0,0,1-.39.39.4.4,0,0,1-.39-.39.39.39,0,0,1,.39-.39A.38.38,0,0,1,303.82,65.07Z" style="fill:#c7c7c7"></path></g><path d="M279.71,63.35a1.13,1.13,0,1,1,1.13,1.13A1.12,1.12,0,0,1,279.71,63.35Z" style="fill:#c7c7c7"></path><path d="M283.27,63.35a1.14,1.14,0,1,1,1.14,1.13A1.13,1.13,0,0,1,283.27,63.35Z" style="fill:#c7c7c7"></path><path d="M286.84,63.35A1.13,1.13,0,1,1,288,64.48,1.13,1.13,0,0,1,286.84,63.35Z" style="fill:#c7c7c7"></path><path d="M290.41,63.35a1.13,1.13,0,1,1,2.26,0,1.13,1.13,0,1,1-2.26,0Z" style="fill:#c7c7c7"></path><path d="M294,63.35a1.14,1.14,0,1,1,1.13,1.13A1.13,1.13,0,0,1,294,63.35Z" style="fill:#c7c7c7"></path><path d="M426.47,65.71h-9v-4h9Zm-8.75-.25h8.5V61.91h-8.5Z" style="fill:#c7c7c7"></path><rect x="418.13" y="62.28" width="5.94" height="2.82" style="fill:#c7c7c7"></rect><rect x="426.58" y="62.54" width="0.82" height="2.28" style="fill:#c7c7c7"></rect><path d="M342.67,358.54a2.53,2.53,0,1,1-2.53-2.54A2.53,2.53,0,0,1,342.67,358.54Z" style="fill:#dbdbdb"></path><path d="M358.09,358.54a3.83,3.83,0,1,1-3.83-3.83A3.84,3.84,0,0,1,358.09,358.54Z" style="fill:#8962D0"></path><path d="M370.9,358.54a2.53,2.53,0,1,1-2.53-2.54A2.53,2.53,0,0,1,370.9,358.54Z" style="fill:#dbdbdb"></path><path d="M334.12,187.54v-7.48a.69.69,0,0,1,.69-.7.7.7,0,0,1,.71.7v6.77H339a.7.7,0,1,1,0,1.4h-4.15A.69.69,0,0,1,334.12,187.54Z" style="fill:#8962D0"></path><path d="M347.75,180.46a4.67,4.67,0,0,1,0,6.42,4.16,4.16,0,0,1-3,1.35,4.3,4.3,0,0,1-3.11-1.35,4.75,4.75,0,0,1,0-6.42,4.24,4.24,0,0,1,3.11-1.36A4.09,4.09,0,0,1,347.75,180.46Zm-.16,3.21a3.3,3.3,0,0,0-.87-2.22,2.73,2.73,0,0,0-4.05,0,3.21,3.21,0,0,0-.87,2.22,3.12,3.12,0,0,0,.87,2.2,2.69,2.69,0,0,0,4.05,0A3.21,3.21,0,0,0,347.59,183.67Z" style="fill:#8962D0"></path><path d="M351.14,183.68a4.63,4.63,0,0,1,4.68-4.58,4.68,4.68,0,0,1,2.89,1,.72.72,0,1,1-.88,1.14,3.38,3.38,0,0,0-2-.68,3.12,3.12,0,0,0-2.28.93,3,3,0,0,0,0,4.38,3.12,3.12,0,0,0,2.28.93,3.51,3.51,0,0,0,1.74-.48v-1.74h-1.81a.73.73,0,0,1-.73-.72.71.71,0,0,1,.73-.71h2.52a.71.71,0,0,1,.74.71v2.8a1.12,1.12,0,0,1,0,.21.21.21,0,0,0,0,.07h0a.63.63,0,0,1-.24.31,4.68,4.68,0,0,1-2.88,1A4.61,4.61,0,0,1,351.14,183.68Z" style="fill:#8962D0"></path><path d="M362,180.06a.69.69,0,0,1,.7-.7.7.7,0,0,1,.71.7v7.48a.7.7,0,0,1-.71.69.69.69,0,0,1-.7-.69Z" style="fill:#8962D0"></path><path d="M367.13,187.54a.7.7,0,0,1-.69.69.69.69,0,0,1-.69-.69v-7.37h0a.67.67,0,0,1,.27-.59.71.71,0,0,1,1,.16l4.09,5.66v-5.22a.7.7,0,0,1,.69-.69.71.71,0,0,1,.7.69v7.37a.7.7,0,0,1-.7.69.69.69,0,0,1-.52-.25l-.07-.08-4.05-5.63Z" style="fill:#8962D0"></path><path d="M288.37,214.81v-4.14a.38.38,0,0,1,.38-.38H291a.39.39,0,0,1,.39.38.4.4,0,0,1-.39.4h-1.89v1.28h1.63a.39.39,0,0,1,.38.38.39.39,0,0,1-.38.4h-1.63v1.29H291a.39.39,0,1,1,0,.77h-2.29A.38.38,0,0,1,288.37,214.81Z" style="fill:#263238"></path><path d="M295.37,213.14v1.68a.36.36,0,0,1-.37.37.38.38,0,0,1-.38-.37v-1.68a.71.71,0,0,0-.72-.7.72.72,0,0,0-.71.72v1.73l0,0v0a.41.41,0,0,1-.35.22h-.07a.4.4,0,0,1-.31-.37v-1.66h0v-1.08a.37.37,0,0,1,.38-.38.35.35,0,0,1,.33.21,1.54,1.54,0,0,1,.75-.21,1.5,1.5,0,0,0,2.2,0,1.46,1.46,0,0,1,1.46,1.47v1.66a.37.37,0,0,1-.37.37.38.38,0,0,1-.38-.37v-1.66a.71.71,0,0,0-.71-.72A.73.73,0,0,0,295.37,213.14Z" style="fill:#263238"></path><path d="M302.07,213.45v1.37a.37.37,0,0,1-.37.37.37.37,0,0,1-.36-.3,1.63,1.63,0,0,1-2.13-.21,1.83,1.83,0,0,1,0-2.47,1.6,1.6,0,0,1,2.13-.21.37.37,0,0,1,.36-.31.38.38,0,0,1,.37.38Zm-.74,0a1,1,0,0,0-.27-.72.88.88,0,0,0-.66-.29.84.84,0,0,0-.65.29,1,1,0,0,0-.26.72,1,1,0,0,0,.26.72.86.86,0,0,0,.65.27.9.9,0,0,0,.66-.27A1.08,1.08,0,0,0,301.33,213.45Z" style="fill:#263238"></path><path d="M304.21,210.81a.38.38,0,0,1-.38.39.39.39,0,0,1-.38-.39v-.14a.38.38,0,0,1,.38-.38.37.37,0,0,1,.38.38Zm0,1.27v2.73a.37.37,0,0,1-.38.38.37.37,0,0,1-.38-.38v-2.73a.37.37,0,0,1,.38-.38A.37.37,0,0,1,304.21,212.08Z" style="fill:#263238"></path><path d="M305.7,210.29a.38.38,0,0,1,.39.38v4.14a.38.38,0,0,1-.39.38.39.39,0,0,1-.39-.38v-4.14A.39.39,0,0,1,305.7,210.29Z" style="fill:#263238"></path><path d="M290,241.65h-.86v1.52a.4.4,0,0,1-.4.39.39.39,0,0,1-.38-.39V239a.38.38,0,0,1,.38-.39H290a1.5,1.5,0,1,1,0,3Zm-.86-.78H290a.72.72,0,1,0,0-1.44h-.86Z" style="fill:#263238"></path><path d="M295.34,241.81v1.38a.38.38,0,0,1-.37.37.41.41,0,0,1-.37-.3,1.62,1.62,0,0,1-2.12-.21,1.83,1.83,0,0,1-.48-1.24,1.77,1.77,0,0,1,.48-1.23,1.62,1.62,0,0,1,1.19-.53,1.57,1.57,0,0,1,.93.31.4.4,0,0,1,.37-.31.38.38,0,0,1,.37.38Zm-.74,0a1,1,0,0,0-.28-.72.86.86,0,0,0-.65-.29.84.84,0,0,0-.65.29,1.09,1.09,0,0,0,0,1.44.87.87,0,0,0,.65.28.88.88,0,0,0,.65-.28A1,1,0,0,0,294.6,241.81Z" style="fill:#263238"></path><path d="M296.54,242.56a.37.37,0,0,1,.53-.06,1.36,1.36,0,0,0,.77.31,1,1,0,0,0,.48-.14.29.29,0,0,0,.12-.21.08.08,0,0,0,0-.07.18.18,0,0,0-.09-.08,1.67,1.67,0,0,0-.56-.2h0a2.89,2.89,0,0,1-.61-.18,1.18,1.18,0,0,1-.48-.41.81.81,0,0,1-.12-.44,1,1,0,0,1,.41-.77,1.51,1.51,0,0,1,.87-.26,1.78,1.78,0,0,1,1.05.39.4.4,0,0,1,.11.52.37.37,0,0,1-.52.09,1.23,1.23,0,0,0-.64-.25.76.76,0,0,0-.43.12.21.21,0,0,0-.11.16s0,0,0,.06,0,0,.07.07a1.48,1.48,0,0,0,.52.17h0a2.75,2.75,0,0,1,.65.21,1,1,0,0,1,.5.41.94.94,0,0,1,.13.46,1,1,0,0,1-.44.82,1.63,1.63,0,0,1-.91.28,2,2,0,0,1-1.25-.49A.37.37,0,0,1,296.54,242.56Z" style="fill:#263238"></path><path d="M299.92,242.56a.36.36,0,0,1,.52-.06,1.39,1.39,0,0,0,.78.31.9.9,0,0,0,.47-.14.28.28,0,0,0,.13-.21.14.14,0,0,0,0-.07.24.24,0,0,0-.09-.08,1.67,1.67,0,0,0-.56-.2h0a2.72,2.72,0,0,1-.61-.18,1.12,1.12,0,0,1-.48-.41.81.81,0,0,1-.12-.44,1,1,0,0,1,.41-.77,1.48,1.48,0,0,1,.86-.26,1.76,1.76,0,0,1,1.05.39.39.39,0,0,1,.12.52.37.37,0,0,1-.52.09,1.26,1.26,0,0,0-.65-.25.72.72,0,0,0-.42.12.21.21,0,0,0-.11.16.11.11,0,0,0,0,.06.31.31,0,0,0,.08.07,1.41,1.41,0,0,0,.51.17h0a2.9,2.9,0,0,1,.65.21,1,1,0,0,1,.5.41.94.94,0,0,1,.13.46,1,1,0,0,1-.44.82,1.66,1.66,0,0,1-.91.28,2,2,0,0,1-1.25-.49A.35.35,0,0,1,299.92,242.56Z" style="fill:#263238"></path><path d="M307.94,240.61l-1.16,2.72s0,0,0,.06a0,0,0,0,1,0,0l0,0h0l-.05,0h0l-.07,0h-.28l-.07,0h0a.08.08,0,0,1,0,0h0l0,0a0,0,0,0,1,0,0,.14.14,0,0,1,0-.06l-.52-1.21-.49,1.21,0,.06h0l0,0h0l0,.05-.06,0h-.3s-.05,0-.06,0,0,0,0,0l0,0h0l0,0s0,0,0,0l0-.06-1.15-2.72a.35.35,0,0,1,.2-.48.34.34,0,0,1,.46.21l.83,1.89.49-1.18a.37.37,0,0,1,.34-.22.36.36,0,0,1,.35.22l.5,1.18.82-1.89a.35.35,0,0,1,.47-.21A.37.37,0,0,1,307.94,240.61Z" style="fill:#263238"></path><path d="M309.61,243.05a1.78,1.78,0,0,1-.49-1.24,1.8,1.8,0,0,1,.49-1.22,1.63,1.63,0,0,1,1.2-.54,1.53,1.53,0,0,1,1.17.54,1.72,1.72,0,0,1,.49,1.22,1.7,1.7,0,0,1-.49,1.24,1.56,1.56,0,0,1-1.17.53A1.65,1.65,0,0,1,309.61,243.05Zm.28-1.24a1.17,1.17,0,0,0,.25.75,1,1,0,0,0,.67.25,1,1,0,0,0,.65-.25,1.13,1.13,0,0,0,.27-.75,1.08,1.08,0,0,0-.27-.73,1,1,0,0,0-.65-.26,1.05,1.05,0,0,0-.67.26A1.11,1.11,0,0,0,309.89,241.81Z" style="fill:#263238"></path><path d="M315.68,240.42a.38.38,0,0,1-.37.38.68.68,0,0,0-.42.13,1,1,0,0,0-.32.34,2.32,2.32,0,0,0-.29.58v1.34a.38.38,0,0,1-.76,0v-2.77a.38.38,0,0,1,.76,0v.05a1,1,0,0,1,.15-.14,1.53,1.53,0,0,1,.88-.27A.36.36,0,0,1,315.68,240.42Z" style="fill:#263238"></path><path d="M319.6,243.18a.39.39,0,0,1-.38.38.38.38,0,0,1-.37-.3,1.74,1.74,0,1,1-1-3.21,1.57,1.57,0,0,1,.93.3V239a.39.39,0,0,1,.77,0v2.77h0Zm-1.7-2.36a.89.89,0,0,0-.66.28,1,1,0,0,0,0,1.41.89.89,0,0,0,.66.28.87.87,0,0,0,.65-.28,1,1,0,0,0,0-1.41A.87.87,0,0,0,317.9,240.82Z" style="fill:#263238"></path><polygon points="287.64 274.38 304.22 274.23 320.81 274.18 353.98 274.08 387.15 274.18 403.74 274.23 420.32 274.38 403.74 274.52 387.15 274.57 353.98 274.67 320.81 274.57 304.22 274.52 287.64 274.38" style="fill:#455a64"></polygon><polygon points="287.64 203.68 304.22 203.54 320.81 203.49 353.98 203.39 387.15 203.49 403.74 203.54 420.32 203.68 403.74 203.83 387.15 203.88 353.98 203.98 320.81 203.88 304.22 203.83 287.64 203.68" style="fill:#ebebeb"></polygon><path d="M373.51,164.89a37.18,37.18,0,0,1-39.07,0,37.14,37.14,0,1,1,39.07,0Z" style="fill:#8962D0"></path><circle cx="353.97" cy="129.05" r="11.3" transform="translate(-9.42 29.58) rotate(-4.72)" style="fill:#fff"></circle><path d="M373.51,160.22v4.67a37.18,37.18,0,0,1-39.07,0v-4.65a19.54,19.54,0,0,1,39.07,0Z" style="fill:#fff"></path><path d="M287.64,322.81q6.8-.17,13.58-.23l13.59-.07,13.59.07q6.78.06,13.58.23-6.8.17-13.58.23l-13.59.07L301.22,323Q294.44,323,287.64,322.81Z" style="fill:#455a64"></path><path d="M366,322.81q6.79-.17,13.59-.23l13.58-.07,13.59.07q6.79.06,13.59.23-6.79.17-13.59.23l-13.59.07L379.57,323Q372.78,323,366,322.81Z" style="fill:#455a64"></path><path d="M350.64,324.07a1.81,1.81,0,0,1-.49-1.26,1.85,1.85,0,0,1,.49-1.24,1.68,1.68,0,0,1,1.23-.55,1.56,1.56,0,0,1,1.19.55,1.77,1.77,0,0,1,.5,1.24,1.73,1.73,0,0,1-.5,1.26,1.55,1.55,0,0,1-1.19.54A1.67,1.67,0,0,1,350.64,324.07Zm.29-1.26a1.13,1.13,0,0,0,.26.76,1,1,0,0,0,.68.26,1,1,0,0,0,.66-.26,1.09,1.09,0,0,0,.28-.76,1.06,1.06,0,0,0-.28-.74,1,1,0,0,0-.66-.27,1,1,0,0,0-.68.27A1.09,1.09,0,0,0,350.93,322.81Z" style="fill:#455a64"></path><path d="M356.83,321.4a.38.38,0,0,1-.37.38.69.69,0,0,0-.43.13,1.1,1.1,0,0,0-.33.35,2.06,2.06,0,0,0-.29.6v1.35a.39.39,0,0,1-.4.38.38.38,0,0,1-.37-.38V321.4A.37.37,0,0,1,355,321a.38.38,0,0,1,.4.37v.05a.66.66,0,0,1,.15-.14,1.51,1.51,0,0,1,.9-.28A.36.36,0,0,1,356.83,321.4Z" style="fill:#455a64"></path><rect x="348.24" y="332.08" width="10.5" height="10.5" style="fill:#455a64"></rect><path d="M351.93,338.47h-1.4v-1.61h1.37c0-.12,0-.22,0-.31,0-.42,0-.85,0-1.27a1.77,1.77,0,0,1,1.57-1.7,12.76,12.76,0,0,1,1.75,0V335h-.63a3.56,3.56,0,0,0-.57,0,.52.52,0,0,0-.44.51c0,.41,0,.82,0,1.27h1.6c-.07.52-.13,1-.2,1.5,0,0-.13.1-.2.1-.39,0-.77,0-1.19,0v4.12h-1.7Z" style="fill:#fff"></path><rect x="319.3" y="288.07" width="68.27" height="21.71" style="fill:#8962D0"></rect><path d="M338.37,302v-5.88a.55.55,0,1,1,1.1,0v5.32h2.71a.55.55,0,0,1,0,1.1h-3.26A.55.55,0,0,1,338.37,302Z" style="fill:#fff"></path><path d="M349.09,296.4a3.69,3.69,0,0,1,0,5.05,3.27,3.27,0,0,1-2.39,1.06,3.36,3.36,0,0,1-2.44-1.06,3.72,3.72,0,0,1,0-5.05,3.36,3.36,0,0,1,2.44-1.06A3.27,3.27,0,0,1,349.09,296.4Zm-.13,2.53a2.59,2.59,0,0,0-.68-1.75,2.15,2.15,0,0,0-3.19,0,2.54,2.54,0,0,0-.68,1.75,2.49,2.49,0,0,0,.68,1.73,2.13,2.13,0,0,0,3.19,0A2.54,2.54,0,0,0,349,298.93Z" style="fill:#fff"></path><path d="M351.75,298.94a3.68,3.68,0,0,1,5.95-2.82.56.56,0,0,1,.11.8.58.58,0,0,1-.81.09,2.55,2.55,0,0,0-1.57-.54,2.48,2.48,0,0,0-1.8.73,2.38,2.38,0,0,0,0,3.45,2.48,2.48,0,0,0,1.8.73,2.76,2.76,0,0,0,1.37-.38v-1.37h-1.43a.57.57,0,0,1-.57-.56.56.56,0,0,1,.57-.56h2a.56.56,0,0,1,.58.56v2.2a.86.86,0,0,1,0,.17l0,.05h0a.47.47,0,0,1-.19.24,3.69,3.69,0,0,1-5.94-2.8Z" style="fill:#fff"></path><path d="M360.25,296.09a.54.54,0,0,1,.55-.55.56.56,0,0,1,.56.55V302a.55.55,0,0,1-.56.54.53.53,0,0,1-.55-.54Z" style="fill:#fff"></path><path d="M364.32,302a.55.55,0,0,1-1.09,0v-5.79h0a.54.54,0,0,1,.22-.46.55.55,0,0,1,.76.12l3.22,4.45v-4.1a.54.54,0,0,1,.53-.54.55.55,0,0,1,.55.54V302a.55.55,0,0,1-.55.54.52.52,0,0,1-.4-.2.1.1,0,0,1-.05-.06l-3.19-4.42Z" style="fill:#fff"></path><rect x="287.64" y="220.18" width="132.69" height="11.75" style="fill:#ebebeb"></rect><path d="M292.71,225.07a.19.19,0,0,1,.2-.2.2.2,0,0,1,.21.2v2.27a1.28,1.28,0,1,0,2.56,0v-2.27a.21.21,0,0,1,.42,0v2.27a1.7,1.7,0,1,1-3.39,0Z" style="fill:#a6a6a6"></path><path d="M297.72,228.17a.19.19,0,0,1,.28,0,2.19,2.19,0,0,0,1.28.49,1.23,1.23,0,0,0,.79-.26.62.62,0,0,0,.31-.51.65.65,0,0,0-.3-.51,2.11,2.11,0,0,0-.88-.3h0a2.41,2.41,0,0,1-.95-.32.89.89,0,0,1-.45-.75,1.06,1.06,0,0,1,.45-.82,1.81,1.81,0,0,1,1-.28,2.24,2.24,0,0,1,1.24.45.21.21,0,0,1,.06.29.2.2,0,0,1-.28.06,1.85,1.85,0,0,0-1-.41,1.28,1.28,0,0,0-.79.23.63.63,0,0,0-.26.48.49.49,0,0,0,.24.42,2,2,0,0,0,.85.28h0a2.93,2.93,0,0,1,1,.34,1,1,0,0,1,0,1.69,1.62,1.62,0,0,1-1,.34,2.56,2.56,0,0,1-1.54-.6A.19.19,0,0,1,297.72,228.17Z" style="fill:#a6a6a6"></path><path d="M301.89,227a2.06,2.06,0,0,1,2-2.09,2,2,0,0,1,2,1.94h0v0a.19.19,0,0,1-.2.19H302.3a1.63,1.63,0,0,0,1.61,1.6,1.56,1.56,0,0,0,1.34-.76.2.2,0,0,1,.27-.07.21.21,0,0,1,.07.29,2,2,0,0,1-1.68.95A2.05,2.05,0,0,1,301.89,227Zm.43-.33h3.15a1.6,1.6,0,0,0-1.56-1.35A1.63,1.63,0,0,0,302.32,226.63Z" style="fill:#a6a6a6"></path><path d="M307.18,225.09a.21.21,0,0,1,.22-.21.2.2,0,0,1,.19.21V226l.06-.1a2,2,0,0,1,1.67-1,.2.2,0,0,1,.2.21.2.2,0,0,1-.2.2,1.51,1.51,0,0,0-1.21.68,3.7,3.7,0,0,0-.5,1,.11.11,0,0,0,0,.07v1.82a.2.2,0,0,1-.19.21.21.21,0,0,1-.22-.21Z" style="fill:#a6a6a6"></path><path d="M313.89,226.57a1.28,1.28,0,0,0-1.29-1.28,1.31,1.31,0,0,0-1.29,1.28v2.3a.18.18,0,0,1,0,.09.18.18,0,0,1-.15.08h-.05a.26.26,0,0,1-.14-.11,0,0,0,0,1,0,0,0,0,0,0,0,0,0v-3.79a.21.21,0,0,1,.21-.21.2.2,0,0,1,.19.21v.4a1.68,1.68,0,0,1,3,1.08v2.26a.2.2,0,1,1-.4,0Z" style="fill:#a6a6a6"></path><path d="M319.62,225.08v3.75a.22.22,0,0,1-.21.21.21.21,0,0,1-.2-.21v-.62a2,2,0,0,1-1.57.83,2.09,2.09,0,0,1,0-4.17,2,2,0,0,1,1.57.82v-.61a.2.2,0,0,1,.2-.21A.21.21,0,0,1,319.62,225.08Zm-.41,1.87a1.57,1.57,0,1,0-1.57,1.68A1.63,1.63,0,0,0,319.21,227Z" style="fill:#a6a6a6"></path><path d="M327.34,226.57a1.31,1.31,0,0,0-1.29-1.29,1.29,1.29,0,0,0-1.28,1.29v2.3h0v0a.22.22,0,0,1-.1.11.23.23,0,0,1-.11,0h-.06l-.05,0h0l0,0v0h0a0,0,0,0,0,0,0,0,0,0,0,0,0,0v-2.31a1.29,1.29,0,1,0-2.57,0v2.27a.17.17,0,0,1-.09.16.09.09,0,0,1-.05,0h-.08a.21.21,0,0,1-.17-.16v-3.8a.2.2,0,0,1,.19-.2.19.19,0,0,1,.2.2v.4a1.68,1.68,0,0,1,2.77.29,1.73,1.73,0,0,1,1.5-.89,1.69,1.69,0,0,1,1.69,1.69v2.27a.2.2,0,1,1-.4,0Z" style="fill:#a6a6a6"></path><path d="M329.17,227a2,2,0,0,1,4-.15h0v0a.2.2,0,0,1-.21.19h-3.41a1.63,1.63,0,0,0,1.61,1.6,1.56,1.56,0,0,0,1.34-.76.21.21,0,0,1,.28-.07.22.22,0,0,1,.06.29,2,2,0,0,1-1.68.95A2.05,2.05,0,0,1,329.17,227Zm.43-.33h3.16a1.61,1.61,0,0,0-1.57-1.35A1.63,1.63,0,0,0,329.6,226.63Z" style="fill:#a6a6a6"></path><path d="M337.29,223.08a3,3,0,0,1,3,3,2.87,2.87,0,0,1-.32,1.36,1.39,1.39,0,0,1-.77.65.52.52,0,0,1-.17,0,.59.59,0,0,1-.48-.23.72.72,0,0,1-.14-.41v-.29a1.45,1.45,0,0,1-1.09.51,1.6,1.6,0,0,1,0-3.19,1.54,1.54,0,0,1,1.5,1.58v1.36h0a.34.34,0,0,0,.05.19.18.18,0,0,0,.15.06h.07a.86.86,0,0,0,.49-.44,2.38,2.38,0,0,0,.28-1.17,2.56,2.56,0,1,0-2.55,2.57,2.22,2.22,0,0,0,.63-.07.19.19,0,0,1,.24.15.18.18,0,0,1-.14.24,2.92,2.92,0,0,1-.73.1,3,3,0,1,1,0-6Zm0,4.14a1.13,1.13,0,0,0,1.08-1.17,1.14,1.14,0,0,0-1.08-1.17,1.13,1.13,0,0,0-1.08,1.17A1.12,1.12,0,0,0,337.29,227.22Z" style="fill:#a6a6a6"></path><path d="M348.93,226.57a1.31,1.31,0,0,0-1.29-1.29,1.3,1.3,0,0,0-1.29,1.29v2.3h0v0a.2.2,0,0,1-.11.11.17.17,0,0,1-.1,0h-.06l-.05,0h0l0,0s0,0,0,0h0v0a0,0,0,0,0,0,0v-2.31a1.29,1.29,0,1,0-2.57,0v2.27a.17.17,0,0,1-.09.16l0,0h-.09a.25.25,0,0,1-.17-.16v-3.8a.21.21,0,0,1,.2-.2.19.19,0,0,1,.2.2v.4a1.68,1.68,0,0,1,2.77.29,1.73,1.73,0,0,1,1.5-.89,1.69,1.69,0,0,1,1.69,1.69v2.27a.21.21,0,0,1-.21.2.2.2,0,0,1-.19-.2Z" style="fill:#a6a6a6"></path><path d="M354.55,225.08v3.75a.22.22,0,0,1-.21.21.21.21,0,0,1-.2-.21v-.62a2,2,0,0,1-1.56.83,2.09,2.09,0,0,1,0-4.17,2,2,0,0,1,1.56.82v-.61a.2.2,0,0,1,.2-.21A.21.21,0,0,1,354.55,225.08Zm-.41,1.87a1.57,1.57,0,1,0-1.56,1.68A1.62,1.62,0,0,0,354.14,227Z" style="fill:#a6a6a6"></path><path d="M356.33,223.72a.21.21,0,1,1,.41,0v.19a.21.21,0,1,1-.41,0Zm0,1.36a.2.2,0,0,1,.2-.21.21.21,0,0,1,.21.21v3.75a.21.21,0,1,1-.41,0Z" style="fill:#a6a6a6"></path><path d="M358.59,223.29a.2.2,0,0,1,.2-.2.2.2,0,0,1,.21.2v5.54a.21.21,0,1,1-.41,0Z" style="fill:#a6a6a6"></path><path d="M361,228.19a.42.42,0,0,1,.42.42.43.43,0,1,1-.85,0A.42.42,0,0,1,361,228.19Z" style="fill:#a6a6a6"></path><path d="M362.13,227a2.1,2.1,0,0,1,2.14-2.08,2.17,2.17,0,0,1,1.33.46.19.19,0,0,1,0,.28.21.21,0,0,1-.28,0,1.7,1.7,0,1,0-1.07,3,1.76,1.76,0,0,0,1.07-.37.21.21,0,0,1,.28,0,.19.19,0,0,1,0,.29,2.14,2.14,0,0,1-3.45-1.64Z" style="fill:#a6a6a6"></path><path d="M368.93,224.87a2.09,2.09,0,1,1-2,2.08A2,2,0,0,1,368.93,224.87Zm0,3.76a1.68,1.68,0,1,0-1.56-1.68A1.63,1.63,0,0,0,368.93,228.63Z" style="fill:#a6a6a6"></path><path d="M378.42,226.57a1.31,1.31,0,0,0-1.29-1.29,1.29,1.29,0,0,0-1.28,1.29v2.3h0v0a.22.22,0,0,1-.1.11.23.23,0,0,1-.11,0h-.05l-.06,0h0l0,0s0,0,0,0h0a0,0,0,0,0,0,0,0,0,0,0,0,0,0v-2.31a1.29,1.29,0,1,0-2.57,0v2.27a.17.17,0,0,1-.09.16.09.09,0,0,1,0,0h-.08a.21.21,0,0,1-.17-.16v-3.8a.2.2,0,0,1,.19-.2.19.19,0,0,1,.2.2v.4a1.68,1.68,0,0,1,2.77.29,1.73,1.73,0,0,1,1.5-.89,1.69,1.69,0,0,1,1.69,1.69v2.27a.2.2,0,0,1-.2.2.21.21,0,0,1-.2-.2Z" style="fill:#a6a6a6"></path><rect x="287.64" y="248.55" width="132.69" height="11.75" style="fill:#ebebeb"></rect><path d="M293.73,254.6l-.78.53a.24.24,0,0,1-.13.05.18.18,0,0,1-.17-.18.17.17,0,0,1,.12-.16l.87-.42-.87-.41a.19.19,0,0,1-.12-.16.18.18,0,0,1,.17-.18.17.17,0,0,1,.13.05l.78.52-.07-.92a.17.17,0,1,1,.34,0l-.07.92.78-.52a.18.18,0,0,1,.13-.05.18.18,0,0,1,.17.18.17.17,0,0,1-.12.16l-.87.41.87.42a.16.16,0,0,1,.12.16.18.18,0,0,1-.17.18.24.24,0,0,1-.13-.05l-.78-.53.07.93a.17.17,0,1,1-.34,0Z" style="fill:#a6a6a6"></path><path d="M297.38,254.6l-.77.53a.27.27,0,0,1-.14.05.18.18,0,0,1-.17-.18.17.17,0,0,1,.12-.16l.88-.42-.88-.41a.19.19,0,0,1-.12-.16.18.18,0,0,1,.17-.18.19.19,0,0,1,.14.05l.77.52-.07-.92a.18.18,0,0,1,.17-.19.17.17,0,0,1,.17.19l-.06.92.77-.52a.19.19,0,0,1,.14-.05.17.17,0,0,1,.16.18.17.17,0,0,1-.11.16l-.88.41.88.42a.16.16,0,0,1,.11.16.18.18,0,0,1-.16.18.24.24,0,0,1-.14-.05l-.77-.53.06.93a.16.16,0,0,1-.17.18.17.17,0,0,1-.17-.18Z" style="fill:#a6a6a6"></path><path d="M301,254.6l-.78.53a.24.24,0,0,1-.13.05A.18.18,0,0,1,300,255a.17.17,0,0,1,.12-.16l.87-.42-.87-.41a.19.19,0,0,1-.12-.16.18.18,0,0,1,.17-.18.17.17,0,0,1,.13.05l.78.52-.07-.92a.17.17,0,1,1,.34,0l-.07.92.77-.52a.22.22,0,0,1,.14-.05.18.18,0,0,1,.17.18.17.17,0,0,1-.12.16l-.87.41.87.42a.16.16,0,0,1,.12.16.18.18,0,0,1-.17.18.3.3,0,0,1-.14-.05l-.77-.53.07.93a.17.17,0,1,1-.34,0Z" style="fill:#a6a6a6"></path><path d="M304.69,254.6l-.77.53a.27.27,0,0,1-.14.05.18.18,0,0,1-.17-.18.17.17,0,0,1,.12-.16l.88-.42-.88-.41a.19.19,0,0,1-.12-.16.18.18,0,0,1,.17-.18.19.19,0,0,1,.14.05l.77.52-.07-.92a.18.18,0,0,1,.17-.19.17.17,0,0,1,.17.19l-.06.92.77-.52a.19.19,0,0,1,.14-.05.17.17,0,0,1,.16.18.17.17,0,0,1-.11.16l-.88.41.88.42a.16.16,0,0,1,.11.16.18.18,0,0,1-.16.18.24.24,0,0,1-.14-.05l-.77-.53.06.93a.16.16,0,0,1-.17.18.17.17,0,0,1-.17-.18Z" style="fill:#a6a6a6"></path><path d="M308.35,254.6l-.78.53a.24.24,0,0,1-.13.05.18.18,0,0,1-.17-.18.17.17,0,0,1,.12-.16l.87-.42-.87-.41a.19.19,0,0,1-.12-.16.18.18,0,0,1,.17-.18.17.17,0,0,1,.13.05l.78.52-.07-.92a.17.17,0,1,1,.34,0l-.07.92.77-.52a.2.2,0,0,1,.14-.05.18.18,0,0,1,.17.18.17.17,0,0,1-.12.16l-.87.41.87.42a.16.16,0,0,1,.12.16.18.18,0,0,1-.17.18.27.27,0,0,1-.14-.05l-.77-.53.07.93a.17.17,0,1,1-.34,0Z" style="fill:#a6a6a6"></path><path d="M312,254.6l-.77.53a.27.27,0,0,1-.14.05.18.18,0,0,1-.17-.18.17.17,0,0,1,.12-.16l.88-.42L311,254a.19.19,0,0,1-.12-.16.18.18,0,0,1,.17-.18.19.19,0,0,1,.14.05l.77.52-.07-.92a.17.17,0,0,1,.17-.19.17.17,0,0,1,.17.19l-.06.92.77-.52a.18.18,0,0,1,.13-.05.17.17,0,0,1,.17.18.17.17,0,0,1-.12.16l-.87.41.87.42a.16.16,0,0,1,.12.16.18.18,0,0,1-.17.18.24.24,0,0,1-.13-.05l-.77-.53.06.93a.16.16,0,0,1-.17.18.17.17,0,0,1-.17-.18Z" style="fill:#a6a6a6"></path><path d="M315.66,254.6l-.78.53a.24.24,0,0,1-.13.05.18.18,0,0,1-.17-.18.17.17,0,0,1,.12-.16l.87-.42-.87-.41a.19.19,0,0,1-.12-.16.18.18,0,0,1,.17-.18.17.17,0,0,1,.13.05l.78.52-.07-.92a.17.17,0,1,1,.34,0l-.07.92.77-.52a.2.2,0,0,1,.14-.05.18.18,0,0,1,.17.18.17.17,0,0,1-.12.16l-.88.41.88.42a.16.16,0,0,1,.12.16.18.18,0,0,1-.17.18.27.27,0,0,1-.14-.05l-.77-.53.07.93a.17.17,0,1,1-.34,0Z" style="fill:#a6a6a6"></path><path d="M319.31,254.6l-.77.53a.27.27,0,0,1-.14.05.18.18,0,0,1-.17-.18.17.17,0,0,1,.12-.16l.88-.42-.88-.41a.19.19,0,0,1-.12-.16.18.18,0,0,1,.17-.18.19.19,0,0,1,.14.05l.77.52-.07-.92a.17.17,0,0,1,.17-.19.17.17,0,0,1,.17.19l-.06.92.77-.52a.18.18,0,0,1,.13-.05.17.17,0,0,1,.17.18.18.18,0,0,1-.11.16l-.88.41.88.42a.17.17,0,0,1,.11.16.18.18,0,0,1-.17.18.24.24,0,0,1-.13-.05l-.77-.53.06.93a.16.16,0,0,1-.17.18.17.17,0,0,1-.17-.18Z" style="fill:#a6a6a6"></path></g><g id="freepik--Table--inject-5"><polygon points="36.71 404.85 90.03 404.61 143.35 404.52 250 404.35 356.64 404.52 409.97 404.61 463.29 404.85 409.97 405.1 356.64 405.19 250 405.35 143.35 405.18 90.03 405.1 36.71 404.85" style="fill:#263238"></polygon></g><g id="freepik--Plant--inject-5"><path d="M414.69,346.6c14.34,14,16.74,35.75,13.72,54.77-.08.43-.74.31-.74-.09,0-4.33.13-8.62.11-12.9-.07-.19-.14-.38-.22-.57-3.74-2.73-7.18-5.8-9.31-10-2.4-4.71-3.34-10-5.17-14.94-.17-.47.33-.33.66-.09,8.72,6.43,11.5,13.35,14,22.6a77.4,77.4,0,0,0-1.52-14.4c-1.89-8.78-5.61-17.47-11.92-24C414.08,346.73,414.44,346.35,414.69,346.6Z" style="fill:#263238"></path><path d="M412,348.24c-2.47.08-4,4-5.94,5.17a1.84,1.84,0,0,1-2.72-.42c-1.9-2.66.71-5.94,3.17-7.78-1.76.73-3.22,2-5.11,2.36a1.79,1.79,0,0,1-2.31-1.39c-.84-3.62,3.71-5.23,6.83-5.31-1.51-1.05-5.85-3.91-3.54-5.31s7.41,2.67,9.07,4c2.44,2,5.35,4.93,5.46,8C417.05,351.22,413.89,349,412,348.24Z" style="fill:#8962D0"></path><path d="M412,348.24c-2.47.08-4,4-5.94,5.17a1.84,1.84,0,0,1-2.72-.42c-1.9-2.66.71-5.94,3.17-7.78-1.76.73-3.22,2-5.11,2.36a1.79,1.79,0,0,1-2.31-1.39c-.84-3.62,3.71-5.23,6.83-5.31-1.51-1.05-5.85-3.91-3.54-5.31s7.41,2.67,9.07,4c2.44,2,5.35,4.93,5.46,8C417.05,351.22,413.89,349,412,348.24Z" style="opacity:0.1"></path><path d="M412.71,348.85c-3.15-1.44-9.21.63-9.73-.57-1-2.43,3.8-4.09,6.41-4.42-2.4-.65-7-1.69-6.87-4,.17-2.83,7.07-.39,10.56,2.28,4.4,3.38,4.37,6.63,3.65,7.28C415.73,350.31,413.23,349.08,412.71,348.85Z" style="fill:#8962D0"></path><path d="M447.34,345.21c-14.86,13.48-18.09,35.09-15.79,54.21.06.43.73.34.74-.06.17-4.33.2-8.62.38-12.9l.24-.56c3.84-2.58,7.4-5.52,9.69-9.65,2.57-4.61,3.71-9.88,5.73-14.73.19-.46-.32-.34-.66-.11-9,6.09-12,12.9-14.85,22a76.43,76.43,0,0,1,2.07-14.33c2.21-8.7,6.27-17.25,12.82-23.52C448,345.37,447.6,345,447.34,345.21Z" style="fill:#263238"></path><path d="M450,347c2.46.18,3.86,4.18,5.73,5.4a1.85,1.85,0,0,0,2.74-.33c2-2.58-.48-6-2.87-7.88,1.73.79,3.14,2.11,5,2.54a1.78,1.78,0,0,0,2.36-1.29c1-3.59-3.51-5.38-6.63-5.57,1.55-1,6-3.68,3.75-5.18s-7.52,2.4-9.23,3.68c-2.51,1.88-5.53,4.72-5.75,7.81C444.81,349.74,448.05,347.63,450,347Z" style="fill:#8962D0"></path><path d="M450,347c2.46.18,3.86,4.18,5.73,5.4a1.85,1.85,0,0,0,2.74-.33c2-2.58-.48-6-2.87-7.88,1.73.79,3.14,2.11,5,2.54a1.78,1.78,0,0,0,2.36-1.29c1-3.59-3.51-5.38-6.63-5.57,1.55-1,6-3.68,3.75-5.18s-7.52,2.4-9.23,3.68c-2.51,1.88-5.53,4.72-5.75,7.81C444.81,349.74,448.05,347.63,450,347Z" style="opacity:0.1"></path><path d="M449.23,347.53c3.21-1.31,9.19,1,9.75-.19,1.13-2.39-3.64-4.24-6.24-4.66,2.43-.56,7.07-1.42,7-3.75-.06-2.84-7.05-.66-10.64,1.88-4.53,3.2-4.62,6.46-3.92,7.13C446.16,348.88,448.71,347.75,449.23,347.53Z" style="fill:#8962D0"></path><path d="M432.14,380.81a144.84,144.84,0,0,1-4.61,21.32.53.53,0,0,1-1-.21c1-6.57,2.76-13,3.73-19.59a98,98,0,0,0,1.15-20.1c-.63-11.07-3.64-22.84-10.86-31.5-.16-.21.18-.5.34-.31C435.31,347.28,433,368,433,369.81c2.05-7,4.16-15,11.9-22.09.33-.31.59-.16.54.36-1.39,12.94-5,19.7-12.49,26.62Q432.64,377.79,432.14,380.81Z" style="fill:#263238"></path><path d="M420.38,332.67c-2.6-1.16-6.19,2.15-8.76,2.38a2.14,2.14,0,0,1-2.61-1.81c-.64-3.72,3.72-5.81,7.2-6.48-2.19-.13-4.34.45-6.49-.13A2.05,2.05,0,0,1,408,324c1-4.18,6.49-3.57,9.76-2.08-1-1.85-4.09-7-1-7.29s6.35,6.51,7.4,8.74c1.53,3.28,3.06,7.81,1.62,11.07C424.13,338.3,422,334.41,420.38,332.67Z" style="fill:#8962D0"></path><path d="M420.38,332.67c-2.6-1.16-6.19,2.15-8.76,2.38a2.14,2.14,0,0,1-2.61-1.81c-.64-3.72,3.72-5.81,7.2-6.48-2.19-.13-4.34.45-6.49-.13A2.05,2.05,0,0,1,408,324c1-4.18,6.49-3.57,9.76-2.08-1-1.85-4.09-7-1-7.29s6.35,6.51,7.4,8.74c1.53,3.28,3.06,7.81,1.62,11.07C424.13,338.3,422,334.41,420.38,332.67Z" style="opacity:0.1"></path><path d="M420.82,333.66c-2.55-3.08-9.88-4-9.81-5.48.14-3.05,6-2.34,8.87-1.36-2.17-1.89-6.43-5.29-5.11-7.62,1.6-2.86,7.54,3.14,9.81,7.68,2.87,5.71,1.2,9.08.12,9.39C423.21,336.69,421.24,334.16,420.82,333.66Z" style="fill:#8962D0"></path><path d="M441.66,384.71,448,433.44H409.23c.8-4.32,8-48.79,8-48.79Z" style="fill:#8962D0"></path></g><g id="freepik--Padlock--inject-5"><path d="M289.74,90.7v28h-7.91v-28c0-10.64-8.08-19.29-18-19.29s-18,8.65-18,19.29v28h-7.91v-28c0-15.24,11.63-27.63,25.93-27.63S289.74,75.46,289.74,90.7Z" style="fill:#c7c7c7"></path><polygon points="237.88 97.97 245.79 98.29 245.79 118.68 237.88 118.68 237.88 97.97" style="fill:#a6a6a6"></polygon><polygon points="289.74 100.08 289.74 118.68 281.83 118.68 281.83 99.76 289.74 100.08" style="fill:#a6a6a6"></polygon><rect x="227.75" y="102.75" width="72.12" height="65.43" style="fill:#8962D0"></rect><rect x="263.81" y="102.75" width="36.06" height="65.43" style="opacity:0.1"></rect><path d="M266.86,137.86l3,14.32H257.07l3-14.32a6.41,6.41,0,1,1,6.77,0Z" style="fill:#263238"></path></g></svg>